<?xml version="1.0" encoding="UTF-8" standalone="no"?>

<svg
   width="500"
   height="500"
   viewBox="0 0 500 500"
   xmlns="http://www.w3.org/2000/svg"
   xmlns:svg="http://www.w3.org/2000/svg"
>
    <g
       transform="translate(2.5739991,7.7220074)">
      <path
         style="fill:#fcc262"
         d="m 237.17875,314.05893 c -4.5019,-0.98338 -10.51626,-2.96916 -13.36523,-4.41284 -6.74927,-3.42011 -15.4095,-9.18719 -15.4095,-10.26158 0,-0.46457 1.03751,-1.31739 2.30558,-1.89516 1.97108,-0.89809 2.94891,-0.60788 6.73963,2.0002 19.84719,13.65522 46.2336,15.34261 66.7378,4.26782 9.19644,-4.9672 18.19565,-12.54543 22.35254,-18.82304 10.23611,-15.45827 13.69203,-27.15345 12.96846,-43.8866 -0.57075,-13.1991 -2.71002,-20.22151 -9.03237,-29.64977 -4.9637,-7.40219 -5.12079,-10.11662 -0.61074,-10.55337 2.44532,-0.23681 3.40359,0.22659 4.76487,2.30416 0.93718,1.43031 1.78457,3.14983 1.8831,3.82115 0.0985,0.67132 1.36482,4.17045 2.81398,7.77584 4.40274,10.95367 5.21367,15.40027 5.22575,28.65456 0.0131,14.33906 -1.73428,22.36319 -7.27328,33.4 -6.21501,12.38383 -14.22545,21.22568 -26.31524,29.04653 -11.02007,7.12884 -17.6134,9.00765 -33.60008,9.57453 -9.3642,0.33206 -13.7979,0.0328 -20.18527,-1.36243 z m 1.89245,-18.68845 c -6.75133,-1.99914 -15.50593,-6.30108 -16.67614,-8.19452 -0.49332,-0.79821 35.29285,-37.339 64.01455,-65.36443 16.28992,-15.89501 14.31236,-15.68703 20.96441,-2.2048 7.28012,14.75519 7.97543,29.48731 2.15345,45.6272 -2.64395,7.32963 -8.1594,17.03922 -8.72136,15.35336 -0.19178,-0.57535 -3.67271,1.34016 -7.7354,4.2567 -13.98394,10.03885 -22.09782,12.80814 -37.28526,12.72558 -6.87364,-0.0374 -11.44515,-0.63885 -16.71425,-2.19909 z m 38.84317,-5.37675 c 2.60774,-2.60774 2.96965,-3.62046 2.96965,-8.30994 0,-4.79798 -0.31252,-5.61952 -3.07755,-8.09007 -4.47397,-3.99749 -8.82093,-4.5406 -13.91523,-1.73856 -3.2434,1.78397 -4.39961,3.12813 -5.39919,6.27685 -1.14445,3.60506 -1.07639,4.44885 0.67887,8.41691 3.43798,7.77211 12.71175,9.47651 18.74345,3.44481 z m -30.29459,0.40132 c 3.61582,-3.04251 4.52795,-6.89442 2.67994,-11.31733 -1.69244,-4.05059 -4.01813,-5.45672 -9.02525,-5.45672 -7.20533,0 -11.42536,8.99065 -6.90927,14.71999 3.91195,4.96289 8.88225,5.73314 13.25458,2.05406 z m 53.35567,-17.32262 c 1.83332,-1.83332 1.86637,-2.43513 0.25478,-4.63911 -1.78984,-2.44776 -5.85524,-1.69407 -6.25991,1.16052 -0.60193,4.24612 3.09568,6.38803 6.00513,3.47859 z m -2.46177,-12.63413 c 6.84491,-5.06898 8.67904,-12.85247 4.67454,-19.83736 -5.46886,-9.53914 -18.11037,-9.69827 -25.06165,-0.31546 -2.91555,3.9354 -2.72495,11.67671 0.39173,15.91025 4.93574,6.70444 14.05748,8.63987 19.99538,4.24257 z m 0.50738,-36.0173 c 0.76418,-1.21904 0.76418,-2.14095 0,-3.36 -2.6915,-4.2936 -8.49931,-0.81393 -6.10587,3.65826 1.25417,2.34344 4.55084,2.1824 6.10587,-0.29826 z m -103.49141,56.18437 c 0.14611,-0.25061 -1.41869,-3.76061 -3.47732,-7.8 -5.64771,-11.08183 -7.14316,-17.77683 -7.10853,-31.82437 0.043,-17.42541 2.15269,-25.3111 10.17883,-38.04614 4.69232,-7.44529 16.76194,-18.94446 24.83402,-23.66029 15.40232,-8.99827 35.30969,-11.62661 53.16632,-7.01947 6.15478,1.58797 11.8206,3.82334 16.03147,6.32497 l 6.51252,3.86902 -2.11147,2.17733 -2.11147,2.17734 -2.92932,-2.15987 c -8.82894,-6.50987 -24.8216,-10.52121 -37.78952,-9.47851 -18.72234,1.50538 -38.53327,12.43761 -48.15214,26.57171 -9.71488,14.27519 -12.93559,25.40569 -12.18141,42.09796 0.50078,11.08376 2.5558,18.3491 7.39429,26.1418 l 2.80389,4.51584 -2.01721,2.68416 c -1.8456,2.45579 -3.68239,4.52532 -3.04295,3.42852 z m 21.83249,-24.47156 c -2.65304,-2.91143 -3.76987,-5.28249 -4.56716,-9.69623 -0.62197,-3.44314 -0.54678,-3.60189 1.25053,-2.64 7.87639,4.21532 19.30567,-3.3022 19.31492,-12.70425 0.009,-9.2787 -9.76163,-17.15194 -17.5914,-14.17507 -2.53172,0.96256 -2.65452,0.89372 -2.02683,-1.13631 2.9701,-9.60566 12.60589,-20.04603 20.58182,-22.30037 l 2.4,-0.67834 -2.16549,1.58716 c -4.71754,3.45765 -6.14555,9.43318 -3.67014,15.35768 1.69536,4.05757 5.80756,6.27292 11.64395,6.27292 3.79634,0 4.95166,-0.48798 7.72768,-3.264 2.81973,-2.81973 3.264,-3.90131 3.264,-7.94639 0,-4.60595 -1.55906,-8.08033 -4.75595,-10.59867 -1.20711,-0.9509 -0.93436,-1.01752 1.4616,-0.35701 6.21504,1.71333 10.5433,6.41667 11.88043,12.90994 0.53975,2.62111 0.97108,2.9744 3.29337,2.69749 2.3314,-0.278 2.55178,-0.0943 1.72762,1.44 -0.51957,0.96725 -3.25371,3.88022 -6.07587,6.47326 -2.82216,2.59304 -13.35803,12.8678 -23.41304,22.8328 l -18.28185,18.11819 z m 22.49307,-63.83178 c 1.19416,-0.22962 2.92216,-0.2209 3.84,0.0194 0.91784,0.24028 -0.0592,0.42815 -2.17119,0.4175 -2.112,-0.0107 -2.86297,-0.20725 -1.66881,-0.43688 z"
         id="path5" />
      <path
         style="fill:#efaa5a"
         d="m 238.94402,380.48521 c 0.693,-0.27731 1.521,-0.24321 1.84,0.0758 0.319,0.319 -0.248,0.5459 -1.26,0.50421 -1.11835,-0.0461 -1.34583,-0.27354 -0.58,-0.58 z M 141.5928,360.741 l -1.82878,-2.16 2.16,1.82879 c 2.02986,1.71861 2.59703,2.49121 1.82878,2.49121 -0.18216,0 -1.15416,-0.972 -2.16,-2.16 z m 130.24701,-1.28 c 0.0461,-1.11834 0.27354,-1.34582 0.58,-0.58 0.27731,0.693 0.24321,1.521 -0.0758,1.84 -0.319,0.319 -0.5459,-0.248 -0.50421,-1.26 z m 50.80421,-19.00245 c 0,-0.19935 0.756,-0.95535 1.68,-1.68 1.52261,-1.19412 1.55657,-1.16016 0.36245,0.36245 -1.25412,1.59912 -2.04245,2.10766 -2.04245,1.31755 z m -145.92,-10.56 c 0,-0.19935 0.756,-0.95535 1.68,-1.68 1.52261,-1.19412 1.55657,-1.16016 0.36245,0.36245 -1.25412,1.59912 -2.04245,2.10766 -2.04245,1.31755 z m 64.67955,-11.24467 c -12.92936,-2.16172 -32.99955,-12.05621 -32.99955,-16.2686 0,-2.18341 0.0882,-2.15529 6.24,1.98995 11.40538,7.68523 24.81306,11.4511 40.848,11.47316 5.9603,0.008 9.63883,0.43247 10.5137,1.21261 1.14482,1.02088 1.15594,0.94923 0.0745,-0.48 -1.1121,-1.46968 -1.01994,-1.68 0.73617,-1.68 1.38996,0 1.83745,0.44293 1.45484,1.44 -0.31673,0.82539 0.003,1.48712 0.75013,1.5504 0.71649,0.0607 -0.42529,0.46783 -2.53729,0.90468 -4.87592,1.00855 -18.66538,0.93036 -25.08045,-0.1422 z m 30.18045,-1.52867 c 0.693,-0.27731 1.521,-0.24321 1.84,0.0758 0.319,0.319 -0.248,0.5459 -1.26,0.50421 -1.11835,-0.0461 -1.34583,-0.27354 -0.58,-0.58 z m 2.82,-3.82 c 0.66,-0.26631 1.74,-0.26631 2.4,0 0.66,0.26632 0.12,0.48421 -1.2,0.48421 -1.32,0 -1.86,-0.21789 -1.2,-0.48421 z m 5.04,-1.28421 c 0.792,-0.51183 1.872,-0.9306 2.4,-0.9306 0.528,0 0.312,0.41877 -0.48,0.9306 -0.792,0.51183 -1.872,0.9306 -2.4,0.9306 -0.528,0 -0.312,-0.41877 0.48,-0.9306 z m 7.26291,-0.29778 c 0.27484,-0.71622 1.12912,-1.30222 1.8984,-1.30222 1.88067,0 1.7617,0.37817 -0.49971,1.58844 -1.48909,0.79694 -1.79065,0.73523 -1.39869,-0.28622 z m -1.50291,-1.93199 c 0,-0.20753 2.6039,-1.98454 5.78645,-3.94893 3.18255,-1.96438 8.47455,-6.0083 11.76,-8.9865 3.28545,-2.9782 4.96996,-4.28691 3.74334,-2.90825 -1.65929,1.86498 -1.90504,2.6366 -0.96,3.01426 1.03261,0.41267 1.03515,0.52179 0.0136,0.5834 -0.74319,0.0448 -0.96208,0.56611 -0.53572,1.27579 0.41814,0.69601 -0.0194,0.59837 -1.04182,-0.23247 -1.61859,-1.31531 -1.71106,-1.2696 -1.13071,0.55893 0.43398,1.36734 0.0104,2.55396 -1.35154,3.78653 -1.97405,1.78649 -1.97871,1.78149 -0.96797,-1.03893 0.95642,-2.66888 0.92895,-2.72216 -0.47131,-0.91406 -0.81781,1.056 -1.79233,1.93435 -2.1656,1.95188 -0.37327,0.0175 -2.40667,1.13744 -4.51867,2.48868 -4.76408,3.04803 -8.16,4.86654 -8.16,4.36967 z m -32.37104,-11.91705 c 2.52393,-0.19841 6.41193,-0.19601 8.64,0.005 2.22807,0.20134 0.16304,0.36367 -4.58896,0.36075 -4.752,-0.003 -6.57497,-0.16766 -4.05104,-0.36607 z m 8.24858,-7.69318 c -1.19411,-1.52261 -1.16016,-1.55657 0.36246,-0.36245 1.59911,1.25412 2.10766,2.04245 1.31754,2.04245 -0.19935,0 -0.95535,-0.756 -1.68,-1.68 z m 49.71204,-2.64 c 1.62104,-2.112 3.66563,-5.244 4.54354,-6.96 0.8779,-1.716 1.82658,-3.12 2.10819,-3.12 0.2816,0 0.20965,0.54 -0.15989,1.2 -0.36954,0.66 -0.009,0.552 0.80031,-0.24 0.80971,-0.792 1.75259,-2.52 2.09528,-3.84 l 0.62308,-2.4 -1.44603,2.4 c -2.04093,3.38738 -1.85329,1.91726 0.38485,-3.01516 1.04441,-2.30166 1.90841,-3.61934 1.92,-2.92818 0.0116,0.69116 0.49073,0.9664 1.06473,0.61165 0.75153,-0.46447 0.75153,-0.93713 0,-1.68866 -1.17777,-1.17778 -1.42887,-2.92728 -0.32364,-2.255 1.10298,0.67091 1.5752,-6.03326 1.61192,-22.88465 0.0353,-16.20797 -0.29579,-17.84158 -6.56696,-32.4 -2.38531,-5.53745 -0.41348,-4.26632 2.97837,1.92 9.73009,17.74651 9.66457,45.05821 -0.15772,65.75153 -3.37875,7.11824 -5.30561,9.80123 -5.30561,7.38758 0,-0.83036 -0.39746,-0.80434 -1.48369,0.0971 -0.81603,0.67725 -1.2252,1.90497 -0.90926,2.72829 0.31593,0.82331 0.26265,1.18516 -0.11841,0.8041 -0.38106,-0.38106 -1.57339,0.0641 -2.64962,0.98926 -1.07623,0.92515 -0.63048,-0.0459 0.99056,-2.15791 z m 11.37042,-15.84 c 0.32632,-0.528 0.13581,-0.96 -0.42335,-0.96 -0.55916,0 -1.01665,0.432 -1.01665,0.96 0,0.528 0.1905,0.96 0.42334,0.96 0.23284,0 0.69033,-0.432 1.01666,-0.96 z m -71.36842,11.52 c 0,-1.32 0.21789,-1.86 0.48421,-1.2 0.26631,0.66 0.26631,1.74 0,2.4 -0.26632,0.66 -0.48421,0.12 -0.48421,-1.2 z m 6.64421,-1.52 c 0.0461,-1.11834 0.27354,-1.34582 0.58,-0.58 0.27731,0.693 0.24321,1.521 -0.0758,1.84 -0.319,0.319 -0.5459,-0.248 -0.50421,-1.26 z m -17.21829,-0.31076 c -0.96573,-0.60001 -1.01127,-0.98922 -0.17613,-1.50537 1.31732,-0.81414 2.30626,-0.0934 1.81863,1.32537 -0.19971,0.58105 -0.87745,0.65532 -1.6425,0.18 z m 19.0625,-6.21169 c 0,-0.19935 0.756,-0.95535 1.68,-1.68 1.52261,-1.19412 1.55657,-1.16016 0.36245,0.36245 -1.25412,1.59912 -2.04245,2.10766 -2.04245,1.31755 z m 38.22,-1.25334 c 0.693,-0.27731 1.521,-0.24321 1.84,0.0758 0.319,0.319 -0.248,0.5459 -1.26,0.50421 -1.11835,-0.0461 -1.34583,-0.27354 -0.58,-0.58 z m -29.32173,-3.84948 c 0.93405,-0.2434 2.23005,-0.22739 2.88,0.0356 0.64995,0.26297 -0.11427,0.46212 -1.69827,0.44255 -1.584,-0.0196 -2.11578,-0.23472 -1.18173,-0.47812 z m -45.2819,-11.53107 c 0.69902,-1.16398 1.47758,-1.9097 1.73014,-1.65714 0.25256,0.25256 -0.31936,1.20491 -1.27094,2.11634 -1.65306,1.58332 -1.67352,1.56286 -0.4592,-0.4592 z m 57.38117,-0.0437 c -1.19411,-1.52261 -1.16016,-1.55657 0.36246,-0.36245 1.59911,1.25412 2.10766,2.04245 1.31754,2.04245 -0.19935,0 -0.95535,-0.756 -1.68,-1.68 z m -41.63754,-19.2172 c 10.56,-10.66905 19.5741,-19.40379 20.03135,-19.41054 0.45724,-0.007 -0.62276,1.64511 -2.4,3.67078 -1.77725,2.02566 -3.55535,3.51217 -3.95135,3.30334 -0.396,-0.20883 -0.72,0.29381 -0.72,1.11697 0,0.82316 -0.4575,1.49665 -1.01666,1.49665 -0.55916,0 -0.76607,0.40545 -0.45981,0.901 0.30627,0.49555 -0.20824,1.34641 -1.14334,1.89081 -0.93511,0.54439 -1.3233,1.00295 -0.86265,1.019 0.46065,0.0161 0.30371,0.67244 -0.34877,1.45862 -0.65248,0.78619 -1.58008,1.18608 -2.06133,0.88865 -0.48126,-0.29744 -0.75631,0.0313 -0.61123,0.73057 0.14508,0.69924 -0.52443,1.27463 -1.48781,1.27863 -0.96338,0.004 -2.22788,0.868 -2.80999,1.92 -0.95019,1.71717 -0.89379,1.77802 0.55159,0.59518 3.20473,-2.62261 1.50819,-0.42564 -2.90174,3.75766 -2.48145,2.35394 -3.93189,3.51344 -3.2232,2.57668 2.56432,-3.38954 0.0129,-2.80159 -3.67439,0.84673 -2.07701,2.05506 -5.6516,5.45121 -7.94353,7.547 -2.29193,2.0958 4.47286,-4.91869 15.03286,-15.58773 z M 91.359806,252.901 c 0.04606,-1.11834 0.273543,-1.34582 0.58,-0.58 0.277316,0.693 0.24321,1.521 -0.07579,1.84 -0.319,0.319 -0.545894,-0.248 -0.50421,-1.26 z m 221.871364,-3.76 c 0.0196,-1.584 0.23472,-2.11577 0.47812,-1.18173 0.2434,0.93405 0.22739,2.23005 -0.0356,2.88 -0.26297,0.64996 -0.46212,-0.11427 -0.44255,-1.69827 z m -37.44,-0.96 c 0.0196,-1.584 0.23472,-2.11577 0.47812,-1.18173 0.2434,0.93405 0.22739,2.23005 -0.0356,2.88 -0.26297,0.64996 -0.46212,-0.11427 -0.44255,-1.69827 z m -63.47136,-1.04 c 0.0461,-1.11834 0.27354,-1.34582 0.58,-0.58 0.27731,0.693 0.24321,1.521 -0.0758,1.84 -0.319,0.319 -0.5459,-0.248 -0.50421,-1.26 z m 50.32421,-6.16 c 0.95566,-1.056 1.95357,-1.92 2.21757,-1.92 0.264,0 -0.30191,0.864 -1.25757,1.92 -0.95567,1.056 -1.95358,1.92 -2.21758,1.92 -0.264,0 0.30191,-0.864 1.25758,-1.92 z m 50.47579,-1.52 c 0.0461,-1.11834 0.27354,-1.34582 0.58,-0.58 0.27731,0.693 0.24321,1.521 -0.0758,1.84 -0.319,0.319 -0.5459,-0.248 -0.50421,-1.26 z m -12.67825,-2.08 c -1.19411,-1.52261 -1.16016,-1.55657 0.36246,-0.36245 0.924,0.72465 1.68,1.48065 1.68,1.68 0,0.79011 -0.78834,0.28157 -2.04246,-1.31755 z m -29.63754,-4.44245 c 0,-0.19935 0.756,-0.95535 1.68,-1.68 1.52261,-1.19412 1.55657,-1.16016 0.36245,0.36245 -1.25412,1.59912 -2.04245,2.10766 -2.04245,1.31755 z m 22.56679,-7.30655 c -0.33632,-0.54419 0.049,-0.70513 0.90335,-0.37729 1.66312,0.6382 1.96741,1.32629 0.58651,1.32629 -0.49684,0 -1.16727,-0.42705 -1.48986,-0.949 z m -33.12679,-7.03139 c 0,-0.16521 1.404,-1.56921 3.12,-3.12 l 3.12,-2.81961 -2.81961,3.12 c -2.62827,2.90828 -3.42039,3.56127 -3.42039,2.81961 z m -41.98173,-2.28488 c 0.93405,-0.2434 2.23005,-0.22739 2.88,0.0356 0.64995,0.26297 -0.11427,0.46212 -1.69827,0.44255 -1.584,-0.0196 -2.11578,-0.23472 -1.18173,-0.47812 z m 14.01927,-3.89473 c -1.19411,-1.52261 -1.16016,-1.55657 0.36246,-0.36245 1.59911,1.25412 2.10766,2.04245 1.31754,2.04245 -0.19935,0 -0.95535,-0.756 -1.68,-1.68 z m 30.24177,-3.56833 c -0.29723,-0.77458 -0.35516,-1.96258 -0.12873,-2.64 0.22644,-0.67741 0.63928,-0.0437 0.91743,1.40833 0.54311,2.8351 0.0951,3.53476 -0.7887,1.23167 z M 222.32402,200.661 c 2.06231,-2.112 3.96566,-3.84 4.22966,-3.84 0.264,0 -1.20735,1.728 -3.26966,3.84 -2.06232,2.112 -3.96566,3.84 -4.22966,3.84 -0.264,0 1.20734,-1.728 3.26966,-3.84 z m 38.46172,2.20141 c -0.52098,-1.36819 -0.41071,-1.47846 0.5374,-0.53741 0.65608,0.6512 0.95105,1.42584 0.65547,1.72141 -0.29557,0.29557 -0.83236,-0.23723 -1.19287,-1.184 z m -56.22172,-4.4218 c 0,-0.16521 1.404,-1.56921 3.12,-3.12 l 3.12,-2.81961 -2.81961,3.12 c -2.62827,2.90828 -3.42039,3.56127 -3.42039,2.81961 z m 28.8,-4.49961 c -0.86524,-0.55916 -0.98365,-0.93646 -0.29666,-0.9453 0.62884,-0.008 1.41033,0.4173 1.73666,0.9453 0.73661,1.19187 0.40427,1.19187 -1.44,0 z m 2.88,-0.96 c 0,-0.528 0.45749,-0.96 1.01665,-0.96 0.55916,0 0.74967,0.432 0.42335,0.96 -0.32633,0.528 -0.78382,0.96 -1.01666,0.96 -0.23284,0 -0.42334,-0.432 -0.42334,-0.96 z m 9.6,0 c -1.23063,-0.79528 -1.19573,-0.93273 0.24,-0.9453 0.924,-0.008 1.68,0.4173 1.68,0.9453 0,1.17083 -0.10828,1.17083 -1.92,0 z m 3.66,0.30421 c 0.693,-0.27731 1.521,-0.24321 1.84,0.0758 0.319,0.319 -0.248,0.5459 -1.26,0.50421 -1.11835,-0.0461 -1.34583,-0.27354 -0.58,-0.58 z m 42.87401,-6.10626 c -0.88417,-1.4306 1.11945,-3.50787 3.8953,-4.03851 2.72654,-0.52121 2.65897,-0.64266 1.43445,2.57807 -0.95488,2.51152 -4.14064,3.38447 -5.32975,1.46044 z m -41.97401,-12.11374 c 0.66,-0.26631 1.74,-0.26631 2.4,0 0.66,0.26632 0.12,0.48421 -1.2,0.48421 -1.32,0 -1.86,-0.21789 -1.2,-0.48421 z m 8.64,0 c 0.66,-0.26631 1.74,-0.26631 2.4,0 0.66,0.26632 0.12,0.48421 -1.2,0.48421 -1.32,0 -1.86,-0.21789 -1.2,-0.48421 z M 145.88156,173.061 c -1.19411,-1.52261 -1.16016,-1.55657 0.36246,-0.36245 1.59911,1.25412 2.10766,2.04245 1.31754,2.04245 -0.19935,0 -0.95535,-0.756 -1.68,-1.68 z m 104.58246,-25.85579 c 0.693,-0.27731 1.521,-0.24321 1.84,0.0758 0.319,0.319 -0.248,0.5459 -1.26,0.50421 -1.11835,-0.0461 -1.34583,-0.27354 -0.58,-0.58 z m 2.82,-9.58 c 0.66,-0.26631 1.74,-0.26631 2.4,0 0.66,0.26632 0.12,0.48421 -1.2,0.48421 -1.32,0 -1.86,-0.21789 -1.2,-0.48421 z m -62.34,-17.3 c 0.693,-0.27731 1.521,-0.24321 1.84,0.0758 0.319,0.319 -0.248,0.5459 -1.26,0.50421 -1.11835,-0.0461 -1.34583,-0.27354 -0.58,-0.58 z m 70.98,-14.38 c 0.66,-0.26631 1.74,-0.26631 2.4,0 0.66,0.26632 0.12,0.48421 -1.2,0.48421 -1.32,0 -1.86,-0.21789 -1.2,-0.48421 z"
         id="path4" />
      <path
         style="fill:#ea6d5f"
         d="m 248.48402,406.42521 c 0.66,-0.26631 1.74,-0.26631 2.4,0 0.66,0.26632 0.12,0.48421 -1.2,0.48421 -1.32,0 -1.86,-0.21789 -1.2,-0.48421 z m 10.56,0 c 0.66,-0.26631 1.74,-0.26631 2.4,0 0.66,0.26632 0.12,0.48421 -1.2,0.48421 -1.32,0 -1.86,-0.21789 -1.2,-0.48421 z M 244.95981,369.061 c 0.0461,-1.11834 0.27354,-1.34582 0.58,-0.58 0.27731,0.693 0.24321,1.521 -0.0758,1.84 -0.319,0.319 -0.5459,-0.248 -0.50421,-1.26 z m -67.39825,-9.76 c -1.19411,-1.52261 -1.16016,-1.55657 0.36246,-0.36245 0.924,0.72465 1.68,1.48065 1.68,1.68 0,0.79011 -0.78834,0.28157 -2.04246,-1.31755 z m -39.36,-1.92 c -1.19411,-1.52261 -1.16016,-1.55657 0.36246,-0.36245 0.924,0.72465 1.68,1.48065 1.68,1.68 0,0.79011 -0.78834,0.28157 -2.04246,-1.31755 z m 53.64246,-1.83579 c 0.66,-0.26631 1.74,-0.26631 2.4,0 0.66,0.26632 0.12,0.48421 -1.2,0.48421 -1.32,0 -1.86,-0.21789 -1.2,-0.48421 z M 317.72156,350.661 c -1.19411,-1.52261 -1.16016,-1.55657 0.36246,-0.36245 1.59911,1.25412 2.10766,2.04245 1.31754,2.04245 -0.19935,0 -0.95535,-0.756 -1.68,-1.68 z m -74.99754,-31.59579 c 0.66,-0.26631 1.74,-0.26631 2.4,0 0.66,0.26632 0.12,0.48421 -1.2,0.48421 -1.32,0 -1.86,-0.21789 -1.2,-0.48421 z m 22.14,-0.02 c 0.693,-0.27731 1.521,-0.24321 1.84,0.0758 0.319,0.319 -0.248,0.5459 -1.26,0.50421 -1.11835,-0.0461 -1.34583,-0.27354 -0.58,-0.58 z m 4.02802,-1.23893 c -2.10316,-1.32967 -0.33212,-2.53234 5.53264,-3.75706 5.19583,-1.08504 12.12995,-4.23861 18.9259,-8.60732 2.11939,-1.36243 4.15884,-2.49149 4.53211,-2.50902 0.37327,-0.0175 1.33934,-0.89588 2.14681,-1.95188 1.36529,-1.78549 1.39519,-1.7013 0.4268,1.20177 -0.57274,1.71697 -1.49755,3.40372 -2.05514,3.74833 -0.63043,0.38962 -0.74469,0.11669 -0.30217,-0.72177 0.3914,-0.74158 -0.0819,-0.46566 -1.05167,0.61316 -0.96982,1.07882 -2.60223,2.59082 -3.62758,3.36 -1.64262,1.23223 -1.7754,1.2273 -1.1167,-0.0415 0.41117,-0.792 -0.0563,-0.45674 -1.03871,0.74501 -1.46498,1.79197 -2.02344,1.96465 -3.1046,0.96 -1.09015,-1.01301 -1.21268,-0.92564 -0.708,0.50485 0.33718,0.95574 0.21529,1.48574 -0.27238,1.18434 -0.48546,-0.30003 -1.15837,-0.0994 -1.49533,0.4458 -0.33697,0.54523 -1.01482,0.74278 -1.50634,0.43901 -0.49151,-0.30378 -0.89366,-0.0486 -0.89366,0.56705 0,0.61565 -0.648,0.8707 -1.44,0.56678 -0.792,-0.30392 -1.44,-0.14769 -1.44,0.34716 0,0.49486 -0.71887,0.62389 -1.59749,0.28673 -1.1674,-0.44797 -1.38346,-0.26671 -0.80251,0.67327 0.58094,0.93999 0.36488,1.12125 -0.80252,0.67327 -0.87862,-0.33715 -1.59748,-0.18634 -1.59748,0.33515 0,0.54624 -1.07806,0.67759 -2.54319,0.30986 -1.78981,-0.44921 -2.3418,-0.31244 -1.86334,0.46171 0.81975,1.3264 -0.33765,1.40937 -2.30545,0.16529 z m -20.40802,-7.38107 c 0.66,-0.26631 1.74,-0.26631 2.4,0 0.66,0.26632 0.12,0.48421 -1.2,0.48421 -1.32,0 -1.86,-0.21789 -1.2,-0.48421 z m 10.56,0 c 0.66,-0.26631 1.74,-0.26631 2.4,0 0.66,0.26632 0.12,0.48421 -1.2,0.48421 -1.32,0 -1.86,-0.21789 -1.2,-0.48421 z m -97.86,-0.98 c 0.693,-0.27731 1.521,-0.24321 1.84,0.0758 0.319,0.319 -0.248,0.5459 -1.26,0.50421 -1.11835,-0.0461 -1.34583,-0.27354 -0.58,-0.58 z m 78.68175,-6.59699 c -5.57251,-1.35083 -12.55765,-4.53186 -19.30626,-8.79207 l -3.71138,-2.34289 2.18875,-2.32981 c 2.0078,-2.13721 2.35319,-2.21054 4.17794,-0.88707 7.79687,5.65499 22.56927,10.08462 33.63127,10.08462 7.29264,0 18.37476,-2.62599 24.69985,-5.85281 2.10407,-1.07341 6.86164,-4.11804 10.57239,-6.76584 3.71074,-2.64779 7.56465,-4.97167 8.56423,-5.16418 1.60161,-0.30844 1.52333,0.0356 -0.65919,2.89701 -5.70951,7.48556 -20.02348,16.37966 -30.79792,19.13654 -7.21758,1.84678 -21.77555,1.85496 -29.35968,0.0165 z m 62.58335,-0.86516 c 0.6381,-0.76887 0.88175,-1.84847 0.54144,-2.3991 -0.73963,-1.19675 8.08524,-11.70607 9.23375,-10.99625 0.43874,0.27116 0.567,-0.10821 0.28502,-0.84304 -0.28198,-0.73483 0.15497,-1.89016 0.971,-2.56741 1.08623,-0.90149 1.48369,-0.92751 1.48369,-0.0971 0,0.62382 0.54,0.86068 1.2,0.52636 0.66,-0.33432 0.41523,0.0328 -0.54393,0.81592 -0.95916,0.78307 -1.71113,1.78711 -1.67104,2.23119 0.0806,0.89346 -11.32957,14.72742 -12.14714,14.72742 -0.28214,0 0.009,-0.62907 0.64721,-1.39794 z m 2.4349,-3.40206 c -0.32633,-0.528 -0.0638,-0.96 0.58334,-0.96 0.64716,0 0.9174,-0.25925 0.60053,-0.57613 -0.86229,-0.86228 -2.74125,0.56956 -2.10288,1.60247 0.30378,0.49151 0.76832,0.89366 1.03232,0.89366 0.264,0 0.21301,-0.432 -0.11331,-0.96 z m -91.80246,-2.64 c -1.19411,-1.52261 -1.16016,-1.55657 0.36246,-0.36245 0.924,0.72465 1.68,1.48065 1.68,1.68 0,0.79011 -0.78834,0.28157 -2.04246,-1.31755 z m 55.62246,-2.81579 c 0.693,-0.27731 1.521,-0.24321 1.84,0.0758 0.319,0.319 -0.248,0.5459 -1.26,0.50421 -1.11835,-0.0461 -1.34583,-0.27354 -0.58,-0.58 z m 32.34,-2.22421 c 0.95566,-1.056 1.95357,-1.92 2.21757,-1.92 0.264,0 -0.30191,0.864 -1.25757,1.92 -0.95567,1.056 -1.95358,1.92 -2.21758,1.92 -0.264,0 0.30191,-0.864 1.25758,-1.92 z m -24,-0.96 c 0.95566,-1.056 1.95357,-1.92 2.21757,-1.92 0.264,0 -0.30191,0.864 -1.25757,1.92 -0.95567,1.056 -1.95358,1.92 -2.21758,1.92 -0.264,0 0.30191,-0.864 1.25758,-1.92 z m -41.88246,-0.72 c -1.19411,-1.52261 -1.16016,-1.55657 0.36246,-0.36245 0.924,0.72465 1.68,1.48065 1.68,1.68 0,0.79011 -0.78834,0.28157 -2.04246,-1.31755 z m 11.64246,1.31755 c 0,-0.19935 0.756,-0.95535 1.68,-1.68 1.52261,-1.19412 1.55657,-1.16016 0.36245,0.36245 -1.25412,1.59912 -2.04245,2.10766 -2.04245,1.31755 z m 19.46899,-3.97318 c -1.82277,-1.27672 -1.95117,-1.82008 -1.04463,-4.42058 0.62899,-1.80432 2.11672,-3.42035 3.80059,-4.12837 1.52186,-0.63989 2.43583,-1.5279 2.03103,-1.97334 -0.40479,-0.44545 -0.19291,-0.49725 0.47084,-0.11511 1.92911,1.11061 4.2223,6.27085 3.62419,8.15533 -0.48604,1.53136 -4.21534,3.9377 -6.10258,3.9377 -0.38567,0 -1.63642,-0.65503 -2.77944,-1.45563 z M 239.31602,284.949 c -1.87662,-1.87661 -1.4067,-3.93853 0.768,-3.36984 1.28546,0.33616 1.92,0.0295 1.92,-0.92803 0,-2.75206 2.40284,-0.61346 2.70082,2.40381 0.26142,2.64703 0.004,3.04606 -1.968,3.04606 -1.24785,0 -2.78722,-0.5184 -3.42082,-1.152 z m -42.81135,-2.4935 c -1.00063,-0.21392 -1.41182,-0.6692 -0.91374,-1.01172 2.02216,-1.39064 5.21404,-6.92945 4.6426,-8.05622 -0.33654,-0.66361 0.0681,-0.36799 0.8993,0.65693 0.83115,1.02491 1.51119,2.81123 1.51119,3.96959 0,2.45854 -3.51612,5.00222 -6.13935,4.44142 z m 122.41586,-7.21488 c 2.25002,-4.63122 3.10945,-5.3098 4.29516,-3.39129 0.41329,0.66872 0.26448,0.84844 -0.37518,0.45311 -1.46358,-0.90454 -3.29787,2.84526 -2.65854,5.43483 0.28838,1.16805 0.2703,1.5657 -0.0402,0.88367 -0.44825,-0.98471 -0.8572,-0.99715 -1.98593,-0.0604 -0.92175,0.76499 -0.65295,-0.40207 0.76466,-3.31993 z M 202.29974,265.04657 c -5.39442,-10.77587 -6.77751,-17.2322 -6.08081,-28.38557 1.15027,-18.41466 10.3143,-34.70863 25.02249,-44.49086 11.98986,-7.97429 20.48462,-10.68019 33.58403,-10.69774 12.80543,-0.0172 26.93791,4.36245 32.21988,9.98484 l 2.20794,2.35025 -19.94214,20.18607 c -10.96818,11.10233 -20.35874,19.92859 -20.86791,19.6139 -0.50917,-0.31468 -0.2132,-0.97092 0.65771,-1.45831 0.87091,-0.48738 1.33289,-1.2916 1.02662,-1.78715 -0.30626,-0.49555 -0.0994,-0.901 0.45981,-0.901 0.55916,0 1.01666,-0.72 1.01666,-1.6 0,-0.88 0.25076,-1.34923 0.55725,-1.04274 0.30649,0.30649 2.00285,-1.02551 3.76969,-2.96 1.76685,-1.93449 5.46415,-5.89326 8.21624,-8.79726 l 5.0038,-5.28 -2.91671,-0.2936 c -2.48761,-0.25041 -3.00894,-0.78525 -3.54365,-3.63549 -0.90505,-4.82432 -7.56531,-11.42185 -13.00662,-12.88411 -10.29528,-2.76668 -20.81801,0.47581 -28.25359,8.7061 -3.51137,3.88667 -8.19809,12.53851 -8.21704,15.16894 -0.005,0.71601 -1.098,2.15815 -2.42855,3.20476 -3.14331,2.47253 -5.26082,6.6441 -5.26082,10.36397 0,3.27275 3.08537,10.02861 5.13231,11.23795 0.7182,0.42432 1.54837,2.63906 1.84481,4.92164 0.55103,4.24282 4.90841,11.69378 6.83344,11.68493 0.58819,-0.003 4.45367,-3.31758 8.58995,-7.36639 4.95877,-4.85391 7.7598,-6.97429 8.223,-6.22481 0.48986,0.79261 1.38788,0.40711 2.96683,-1.27361 1.24539,-1.32565 1.95157,-2.41028 1.5693,-2.41028 -1.81301,0 1.38741,-3.24117 3.34265,-3.38521 1.73226,-0.12762 -0.0972,2.07385 -8.12808,9.78079 -5.80576,5.5716 -10.8246,9.6605 -11.41199,9.29747 -0.66912,-0.41354 -0.8283,-0.0742 -0.43991,0.93795 0.33472,0.87229 0.30014,1.49808 -0.0769,1.39067 -0.377,-0.10742 -3.89046,3.13776 -7.80769,7.21151 -3.91723,4.07375 -7.67291,7.40682 -8.34596,7.40682 -0.67304,0 -3.15528,-3.85849 -5.51608,-8.57443 z m 67.86847,-66.47222 c 1.42677,-2.2619 0.0479,-4.63335 -2.69406,-4.63335 -2.04472,0 -2.43013,0.44408 -2.43013,2.8 0,3.89535 3.1195,5.01145 5.12419,1.83335 z m 53.43581,71.31 c 0,-0.64716 -0.432,-0.90967 -0.96,-0.58335 -0.528,0.32633 -0.96,-0.17275 -0.96,-1.10905 0,-1.59847 0.099,-1.60333 1.62285,-0.0795 0.89258,0.89257 1.32458,1.92115 0.96,2.28572 -0.36457,0.36457 -0.66285,0.13336 -0.66285,-0.5138 z m -33.78,-7.47914 c 0.693,-0.27731 1.521,-0.24321 1.84,0.0758 0.319,0.319 -0.248,0.5459 -1.26,0.50421 -1.11835,-0.0461 -1.34583,-0.27354 -0.58,-0.58 z m -3.55109,-6.93658 c -0.7321,-0.46364 -1.5364,-2.97967 -1.78733,-5.59119 -0.41399,-4.30845 -0.20972,-4.94215 2.20555,-6.842 5.23444,-4.11741 10.7884,-1.94258 12.46586,4.8814 1.31398,5.34535 -7.86902,10.72781 -12.88408,7.55179 z m 32.60688,-3.52763 c 0.0461,-1.11834 0.27354,-1.34582 0.58,-0.58 0.27731,0.693 0.24321,1.521 -0.0758,1.84 -0.319,0.319 -0.5459,-0.248 -0.50421,-1.26 z m -227.520004,-1.92 c 0.04606,-1.11834 0.273543,-1.34582 0.58,-0.58 0.277316,0.693 0.24321,1.521 -0.07579,1.84 -0.319,0.319 -0.545894,-0.248 -0.50421,-1.26 z m 213.266934,-1.36 c 0,-1.848 0.19756,-2.604 0.43903,-1.68 0.24147,0.924 0.24147,2.436 0,3.36 -0.24147,0.924 -0.43903,0.168 -0.43903,-1.68 z m 22.96886,0.96 c 0,-1.32 0.21789,-1.86 0.48421,-1.2 0.26631,0.66 0.26631,1.74 0,2.4 -0.26632,0.66 -0.48421,0.12 -0.48421,-1.2 z m -46.15579,-1.52 c 0.0461,-1.11834 0.27354,-1.34582 0.58,-0.58 0.27731,0.693 0.24321,1.521 -0.0758,1.84 -0.319,0.319 -0.5459,-0.248 -0.50421,-1.26 z m -190.004215,-10 c 0,-1.32 0.217895,-1.86 0.484211,-1.2 0.266316,0.66 0.266316,1.74 0,2.4 -0.266316,0.66 -0.484211,0.12 -0.484211,-1.2 z m 124.081095,-0.14354 c -1.53351,-0.7438 -2.04453,-1.95739 -2.16497,-5.14149 -0.16959,-4.48365 1.25647,-6.68138 5.34376,-8.23537 4.09241,-1.55593 5.74267,-1.02099 7.35915,2.38549 2.16344,4.55909 1.95854,6.07345 -1.25677,9.28876 -2.89375,2.89376 -5.74638,3.41706 -9.28117,1.70261 z M 327.5956,237.141 c 0,-1.32 0.21789,-1.86 0.48421,-1.2 0.26631,0.66 0.26631,1.74 0,2.4 -0.26632,0.66 -0.48421,0.12 -0.48421,-1.2 z m -50.55158,-10.56 c 2.06231,-2.112 3.96566,-3.84 4.22966,-3.84 0.264,0 -1.20735,1.728 -3.26966,3.84 -2.06232,2.112 -3.96566,3.84 -4.22966,3.84 -0.264,0 1.20734,-1.728 3.26966,-3.84 z m -37.85244,-16.25793 c -3.06743,-1.94117 -2.19825,-7.86048 1.39459,-9.49748 3.21685,-1.4657 3.86338,-1.42191 5.66928,0.38399 4.42924,4.42924 -1.78894,12.45166 -7.06387,9.11349 z m -9.48041,-6.30207 c 0.0196,-1.584 0.23472,-2.11577 0.47812,-1.18173 0.2434,0.93405 0.22739,2.23005 -0.0356,2.88 -0.26297,0.64996 -0.46212,-0.11427 -0.44255,-1.69827 z m -27.54715,-14.88 c 0.95566,-1.056 1.95357,-1.92 2.21757,-1.92 0.264,0 -0.30191,0.864 -1.25757,1.92 -0.95567,1.056 -1.95358,1.92 -2.21758,1.92 -0.264,0 0.30191,-0.864 1.25758,-1.92 z m 52.57827,-14.10527 c 0.93405,-0.2434 2.23005,-0.22739 2.88,0.0356 0.64995,0.26297 -0.11427,0.46212 -1.69827,0.44255 -1.584,-0.0196 -2.11578,-0.23472 -1.18173,-0.47812 z M 369.68402,170.421 c 1.79115,-1.848 3.47264,-3.36 3.73664,-3.36 0.264,0 -0.98549,1.512 -2.77664,3.36 -1.79116,1.848 -3.47264,3.36 -3.73664,3.36 -0.264,0 0.98548,-1.512 2.77664,-3.36 z M 253.78229,147.19573 c 0.93405,-0.2434 2.23005,-0.22739 2.88,0.0356 0.64995,0.26297 -0.11427,0.46212 -1.69827,0.44255 -1.584,-0.0196 -2.11578,-0.23472 -1.18173,-0.47812 z m -0.43827,-31.67052 c 0.693,-0.27731 1.521,-0.24321 1.84,0.0758 0.319,0.319 -0.248,0.5459 -1.26,0.50421 -1.11835,-0.0461 -1.34583,-0.27354 -0.58,-0.58 z m 4.27827,-9.60948 c 0.93405,-0.2434 2.23005,-0.22739 2.88,0.0356 0.64995,0.26297 -0.11427,0.46212 -1.69827,0.44255 -1.584,-0.0196 -2.11578,-0.23472 -1.18173,-0.47812 z"
         id="path3" />
      <path
         style="fill:#011e2d"
         d="m 243.34947,406.0168 c -31.48401,-2.81212 -65.64235,-16.22545 -90.55177,-35.55795 -7.60006,-5.8985 -24.14351,-23.64986 -30.75247,-32.99785 -9.78135,-13.83515 -14.34769,-22.39474 -19.63701,-36.80956 -12.325237,-33.58953 -13.86954,-66.38672 -4.662353,-99.01681 2.975663,-10.5457 9.128243,-25.65292 13.885003,-34.09363 19.55042,-34.69158 52.13428,-62.86891 88.61315,-76.629406 49.37767,-18.626162 99.63959,-11.99001 146.84972,19.388776 9.5813,6.36833 29.15382,24.27429 34.4,31.47092 17.40609,23.87741 23.06514,34.70323 30.53286,58.40971 5.35381,16.99584 7.73387,41.52491 5.72866,59.04 -2.75125,24.03154 -10.85169,49.16962 -21.37966,66.34747 -16.28892,26.57764 -38.54693,47.63548 -66.22394,62.65311 -9.83786,5.33806 -29.8147,12.30978 -42.86104,14.95809 -7.61924,1.54666 -32.47615,4.23817 -34.62601,3.74932 -0.31933,-0.0726 -4.51114,-0.4831 -9.31514,-0.91219 z m 14.49455,-25.94956 c 2.37713,-0.65807 5.53421,-2.75891 8.28726,-5.51464 3.65517,-3.65873 4.65046,-5.43478 5.58809,-9.97171 0.95674,-4.62942 0.89509,-6.33334 -0.38209,-10.56 -2.78411,-9.2137 -8.28231,-13.484 -19.43801,-15.09695 -14.10419,-2.03926 -13.42904,-2.90439 -15.74347,20.17334 l -1.87376,18.68372 2.04734,1.68 c 2.42521,1.99007 15.21417,2.35044 21.51464,0.60624 z m -11.75035,-19.75542 c 0.4228,-6.17606 0.95163,-11.4121 1.17519,-11.63566 0.22355,-0.22355 2.36246,-0.11314 4.75313,0.24536 8.24229,1.23601 12.24338,8.32751 9.20596,16.31655 -1.34566,3.53935 -6.40425,6.29508 -11.56347,6.29935 l -4.33953,0.004 z m 41.41311,16.74918 c 1.20987,-1.88411 1.20845,-2.8957 -0.0111,-7.92 -0.76897,-3.168 -2.68264,-11.15146 -4.25261,-17.74103 -3.13836,-13.17255 -4.85356,-16.04529 -8.96402,-15.01362 -4.293,1.07747 -4.61102,3.27775 -1.90594,13.18633 1.35261,4.95458 3.48164,13.04966 4.73117,17.98908 1.24952,4.93942 2.77203,9.58342 3.38334,10.32 1.70389,2.05307 5.45543,1.6144 7.01914,-0.82076 z m -64.47141,-1.44 c 0.81892,-0.924 2.00976,-4.272 2.64633,-7.44 0.63656,-3.168 2.43041,-10.8799 3.98633,-17.13757 2.62491,-10.55702 2.72014,-11.54363 1.32033,-13.68 -1.65683,-2.52865 -5.38462,-3.07916 -7.0732,-1.04455 -0.57417,0.69184 -2.5729,7.71184 -4.44162,15.6 -1.86872,7.88817 -3.77622,15.93971 -4.23888,17.89231 -1.45747,6.15108 3.9373,10.169 7.80071,5.80981 z m 79.34379,-1.71246 c 1.13644,-1.07792 0.95785,-2.47652 -1.2,-9.39749 -1.39433,-4.47211 -2.53514,-8.36145 -2.53514,-8.64299 0,-0.28154 3.996,1.6094 8.88,4.2021 8.57122,4.55008 13.39828,5.79998 14.64,3.79084 0.32632,-0.528 1.87769,-0.96 3.44749,-0.96 3.33825,0 9.12213,-2.25304 11.80015,-4.59661 1.79258,-1.5687 1.84376,-1.55613 1.12622,0.27661 -1.6591,4.23771 -1.66324,5.42166 -0.0253,7.23157 3.75577,4.15007 8.15863,0.64136 10.10415,-8.05215 1.01291,-4.52615 0.8678,-5.96937 -1.46616,-14.58138 -2.37534,-8.76472 -5.13991,-13.87804 -7.50331,-13.87804 -1.80791,0 -15.26862,8.99047 -16.6755,11.13764 -1.72899,2.63878 -0.976,5.72787 1.75212,7.18792 1.59605,0.85418 2.80353,0.51283 6.65498,-1.88137 2.58784,-1.60868 4.70516,-2.66972 4.70516,-2.35785 0,1.32292 -4.1618,7.15019 -6.05235,8.47438 -3.39881,2.38062 -8.57719,1.83609 -11.41845,-1.20072 -5.04804,-5.39544 -7.90987,-15.06643 -5.68734,-19.21925 1.59762,-2.98519 6.83016,-4.3954 11.57164,-3.11865 4.68533,1.26163 7.43755,0.1431 8.32236,-3.38227 0.76878,-3.06305 -0.83561,-4.95473 -5.23977,-6.17804 -12.14557,-3.37357 -22.17587,2.04324 -25.24088,13.63119 -1.01615,3.84178 -0.9636,5.26901 0.34465,9.36 0.84899,2.65486 1.25933,4.81021 0.91188,4.78965 -0.34746,-0.0206 -3.00774,-1.52487 -5.91174,-3.34292 -8.51205,-5.32896 -9.63547,-5.65091 -11.88142,-3.40495 -1.87208,1.87208 -1.88642,2.14232 -0.42249,7.96155 3.38409,13.45199 7.58477,25.27183 9.56926,26.92592 2.15809,1.79878 5.03261,1.49906 7.42979,-0.77469 z m -101.16691,-9.91792 c 4.36404,-1.98254 9.67414,-7.58349 11.63186,-12.26896 3.06407,-7.33335 1.06217,-15.9144 -5.22457,-22.39487 -8.20539,-8.45826 -18.70886,-8.99553 -28.58558,-1.46219 -4.49606,3.42932 -7.20369,9.69832 -7.23745,16.75694 -0.0238,4.96655 0.43446,6.58972 2.98015,10.55683 6.1061,9.51554 16.93875,13.12658 26.43559,8.81225 z m -15.85148,-11.50517 c -7.15815,-7.15815 -2.88055,-19.34445 6.79022,-19.34445 5.2859,0 8.31344,1.44784 10.489,5.01608 2.2842,3.74644 2.44723,7.50751 0.48951,11.29332 -2.12609,4.11141 -5.10857,5.7706 -10.37294,5.7706 -3.84336,0 -5.13974,-0.4795 -7.39579,-2.73555 z M 164.24402,340.821 c 1.056,-1.056 1.92,-2.25587 1.92,-2.66639 0,-1.91109 -3.21321,-5.01361 -5.19247,-5.01361 -3.49398,0 -8.52305,-3.99242 -10.03585,-7.96715 -2.93842,-7.72046 2.52877,-15.07285 11.2081,-15.07285 4.54195,0 7.96595,2.4991 10.52232,7.68 1.92412,3.89956 5.18817,4.85227 7.97706,2.32836 2.33688,-2.11485 2.3242,-4.33737 -0.0513,-8.99374 -5.51891,-10.81796 -19.4691,-14.59387 -30.35277,-8.21561 -7.90058,4.63005 -12.11443,17.55037 -8.52539,26.14015 4.51877,10.81494 16.98024,17.3309 22.5303,11.78084 z m 194.44363,-10.99636 c 6.01372,-6.01371 -0.84773,-16.32752 -8.29883,-12.47441 -5.11614,2.64566 -5.90847,8.90022 -1.63216,12.8842 2.85137,2.65646 7.03748,2.48373 9.93099,-0.40979 z m -88.65089,-11.20243 c 13.78038,-2.92225 29.17723,-11.72574 37.62871,-21.51505 10.96778,-12.70395 15.97648,-22.82092 18.93441,-38.24525 3.47352,-18.11289 1.09558,-35.0204 -6.83529,-48.59992 -6.34724,-10.86798 -10.97762,-14.55994 -14.20857,-11.32899 -1.99714,1.99714 -1.28648,4.25921 3.53854,11.26326 2.95904,4.29538 5.7055,9.90524 7.44,15.1968 7.74618,23.63178 -0.81304,53.29508 -20.02708,69.40695 -12.55113,10.52471 -26.28966,15.62144 -42.02346,15.58991 -14.30465,-0.0287 -27.30618,-4.23699 -37.77258,-12.22617 -2.46622,-1.88251 -5.5451,-3.42275 -6.84195,-3.42275 -2.76463,0 -4.7532,3.04479 -3.98571,6.10271 1.20258,4.79147 18.11261,14.19153 31.32024,17.41049 6.55319,1.59715 26.00821,1.81521 32.83274,0.36801 z m 109.68533,-2.13184 c 2.66468,-1.94846 1.2597,-5.5012 -3.28074,-8.29599 -3.18657,-1.96144 -3.87733,-2.91835 -3.87733,-5.37121 0,-5.87741 -6.36701,-8.43516 -10.56,-4.24217 -4.5358,4.5358 -1.16915,10.86566 8.64,16.24462 6.04488,3.31478 6.6658,3.42865 9.07807,1.66475 z m -31.48716,-3.093 c 1.98028,-1.98028 2.34617,-3.05092 1.86496,-5.45701 -0.85759,-4.28795 -3.21313,-6.47936 -6.96466,-6.47936 -4.43283,0 -7.05121,2.83167 -7.05121,7.62557 0,2.82362 0.54216,4.16531 2.1336,5.28 3.2013,2.24227 7.19193,1.85617 10.01731,-0.9692 z m -79.00948,-10.56565 c 7.19061,-1.83988 18.54157,-7.80277 24.75296,-13.00324 14.68302,-12.29332 23.34597,-38.92727 18.69835,-57.48748 -1.72668,-6.89545 -7.89218,-20.04191 -11.44466,-24.40299 l -2.28328,-2.80299 -42.3924,42.06516 c -23.31582,23.13584 -42.38967,42.32519 -42.38633,42.64299 0.0173,1.64996 19.324,11.46741 25.47815,12.95565 7.78383,1.88233 22.28621,1.89847 29.57721,0.0329 z m -6.90492,-12.74451 c -8.12123,-7.58636 -2.61593,-20.25844 8.28244,-19.06451 4.74041,0.51932 7.57163,2.68048 9.50798,7.25775 1.85152,4.37676 0.83493,8.10589 -3.16778,11.62032 -4.58925,4.02941 -10.42902,4.10387 -14.62264,0.18644 z m 9.85986,-3.17189 c 1.3347,-0.60813 2.68389,-1.91595 2.9982,-2.90627 0.85643,-2.69838 -2.58141,-7.93495 -5.43161,-8.27349 -5.2107,-0.61891 -7.97201,7.13401 -3.75661,10.54743 2.5241,2.04389 2.98797,2.09128 6.19002,0.63233 z m -35.97927,2.30568 c -6.41753,-5.73694 -2.36994,-15.6 6.40191,-15.6 1.40433,0 3.61224,1.18356 5.23483,2.80616 3.67808,3.67808 3.79812,8.34765 0.32082,12.48019 -3.29536,3.91631 -7.79547,4.03435 -11.95756,0.31365 z m 8.50372,-6.24 c -0.24743,-2.5662 -0.70825,-3.12 -2.5962,-3.12 -3.0394,0 -4.75985,2.66098 -3.05141,4.71953 0.69404,0.83626 2.31636,1.52047 3.60516,1.52047 2.0654,0 2.3076,-0.36997 2.04245,-3.12 z m 51.11011,-10.73863 c -0.86336,-1.04028 -0.87631,-1.87914 -0.0528,-3.41792 1.22339,-2.28592 3.61697,-2.23606 5.09173,0.10607 2.22086,3.52703 -2.36107,6.5385 -5.03895,3.31185 z m -12.29971,-12.05618 c -8.99658,-5.48528 -9.23947,-18.73444 -0.44311,-24.17089 4.15703,-2.56919 11.50868,-2.75038 15.13691,-0.37308 8.71738,5.71185 8.16442,20.60326 -0.92524,24.91658 -4.39743,2.08672 -9.98285,1.93556 -13.76856,-0.37261 z m 13.38063,-6.74935 c 2.32957,-2.32956 2.78123,-3.42171 2.28283,-5.52 -2.0576,-8.66261 -10.77083,-11.66751 -15.36668,-5.29945 -6.5332,9.05246 5.17169,18.73161 13.08385,10.81945 z M 293.52402,224.981 c -1.08495,-1.08495 -0.70886,-3.86776 0.67832,-5.01901 2.70344,-2.24366 6.58435,1.63725 4.34069,4.34069 -1.15125,1.38718 -3.93406,1.76327 -5.01901,0.67832 z m -140.69213,56.94661 c 1.04411,-2.29157 0.15621,-4.7478 -10.63746,-29.42661 -4.70422,-10.7558 -5.03818,-8.09739 3.61805,-28.8 2.0973,-5.016 4.75178,-11.18371 5.89884,-13.70602 2.25129,-4.95045 1.97652,-7.7906 -0.90277,-9.33155 -2.59192,-1.38715 -4.64675,-0.23877 -6.64912,3.71598 -6.37227,12.58544 -15.43541,34.87129 -15.43541,37.95493 0,3.27505 8.53087,24.51727 14.87007,37.02707 2.11555,4.17484 2.82814,4.81959 5.32668,4.81959 2.09506,0 3.16538,-0.61666 3.91112,-2.25339 z M 363.64102,281.301 c 2.98168,-5.88057 14.69533,-34.38168 15.23075,-37.05876 0.62169,-3.10848 -1.49296,-9.19814 -9.08249,-26.15528 -2.04463,-4.56828 -4.4942,-10.1682 -5.44349,-12.44429 -2.37032,-5.68325 -5.58767,-7.35863 -8.5132,-4.43309 -2.14603,2.14602 -1.87232,5.51743 0.89056,10.96972 1.31953,2.60396 4.59203,10.0416 7.27224,16.52809 3.67614,8.89682 4.76332,12.61891 4.42619,15.15361 -0.40607,3.05301 -5.08354,14.73822 -11.5998,28.97849 -2.77427,6.06275 -3.07894,8.45634 -1.30249,10.23279 1.97864,1.97864 6.74774,0.93854 8.12173,-1.77128 z M 202.4788,278.48983 c 0.18616,-1.24853 -1.08496,-4.14552 -3.11089,-7.08999 -4.27932,-6.21953 -7.07138,-14.06547 -8.50458,-23.89869 -2.7893,-19.13736 6.31423,-42.87732 21.17827,-55.22812 8.13316,-6.758 14.42811,-10.52357 22.38021,-13.38762 6.30848,-2.27209 8.55059,-2.56614 20.06221,-2.63118 15.63878,-0.0884 22.58377,1.71488 33.4969,8.69736 l 7.09691,4.54077 1.78309,-2.20203 c 0.9807,-1.21112 1.7831,-2.74391 1.7831,-3.40621 0,-2.65181 -4.05922,-6.06316 -11.20169,-9.41385 -31.0999,-14.58966 -66.17876,-7.37524 -88.00132,18.09858 -11.86302,13.8479 -16.80236,26.46368 -17.63885,45.05215 -0.47146,10.47674 -0.28231,12.38654 2.08861,21.08854 4.8396,17.76289 11.01923,26.49582 16.35325,23.11013 1.056,-0.67028 2.06165,-2.16871 2.23478,-3.32984 z m 46.82143,-44.67257 40.14659,-39.80374 -2.30472,-2.45327 c -5.37783,-5.72444 -19.41153,-10.10515 -32.31665,-10.08785 -13.09941,0.0175 -21.59417,2.72345 -33.58403,10.69774 -10.60029,7.05012 -17.79985,16.75378 -22.59335,30.45161 -2.43629,6.96191 -3.32941,20.94914 -1.80477,28.26482 1.37982,6.62084 9.19731,22.73443 11.02958,22.73443 0.70442,0 19.34673,-17.91168 41.42735,-39.80374 z m -35.79989,9.13481 c -7.09679,-3.22197 -10.04783,-12.48175 -6.06151,-19.01984 4.05884,-6.65702 12.51479,-8.86946 18.87515,-4.93854 9.18553,5.67697 8.62395,19.19521 -0.99076,23.84961 -5.00896,2.4248 -6.68753,2.44024 -11.82288,0.10877 z m 11.29752,-6.69722 c 3.195,-3.195 3.41716,-4.73608 1.31989,-9.15575 -1.41617,-2.98436 -4.75357,-5.3181 -7.60525,-5.3181 -2.16612,0 -6.96654,4.60059 -7.45239,7.14217 -0.58142,3.04152 1.67731,7.69427 4.36623,8.99397 3.6291,1.75414 6.45663,1.2526 9.37152,-1.66229 z m 11.80933,-21.56314 c -4.27826,-1.9336 -6.12317,-5.06385 -6.12317,-10.38917 0,-6.55984 3.58027,-10.45139 10.13701,-11.01832 6.33338,-0.54761 10.42921,1.94569 12.04265,7.33087 1.47764,4.93191 -0.0982,10.89167 -3.46279,13.09624 -3.25355,2.13181 -9.04801,2.58289 -12.5937,0.98038 z m 9.23683,-5.39071 c 2.46779,-2.46779 2.44199,-5.79746 -0.0697,-8.99053 -2.39686,-3.04711 -4.58472,-3.19546 -7.96086,-0.53979 -3.20099,2.5179 -3.26727,5.99979 -0.1731,9.09396 2.85688,2.85688 5.63533,3.00467 8.20364,0.43636 z m 20.4,-9.28 c -0.66,-0.264 -1.2,-1.74 -1.2,-3.28 0,-2.35592 0.38541,-2.8 2.43013,-2.8 2.74195,0 4.12083,2.37145 2.69406,4.63335 -1.08048,1.71293 -2.21391,2.13077 -3.92419,1.44665 z m -121.48731,-13.04 c 4.27696,-4.6957 5.24425,-9.25812 2.72532,-12.8544 -0.77109,-1.10089 -4.47568,-3.82766 -8.23242,-6.0595 -7.35974,-4.37234 -10.81173,-4.64159 -11.98814,-0.93507 -0.80175,2.52611 1.38289,4.99451 7.42242,8.3865 5.08995,2.85867 5.50885,3.86251 2.68013,6.42247 -2.31227,2.09258 -2.42675,3.67612 -0.41143,5.69143 2.14681,2.14681 5.51121,1.86597 7.80412,-0.65143 z m 230.90607,-9.09747 c 7.38118,-7.33789 8.76638,-10.09338 6.30924,-12.55053 -2.37669,-2.37668 -5.38858,-1.10172 -12.11993,5.13048 -7.14712,6.61714 -8.39003,8.7075 -7.43647,12.50681 0.43924,1.75004 1.23286,2.33071 3.18545,2.33071 1.95914,0 4.44056,-1.82929 10.06171,-7.41747 z m -205.58492,2.69132 c 3.16374,-3.16373 3.41973,-4.74267 1.40166,-8.64519 -2.30496,-4.45729 -7.10415,-5.26861 -10.77363,-1.82131 -3.68143,3.45852 -2.5837,10.49101 1.92088,12.30595 3.42002,1.37796 4.5004,1.11125 7.45109,-1.83945 z m 157.3067,-9.61678 c 0.96842,-0.61277 2.0396,-6.10905 3.58829,-18.41167 1.95678,-15.54441 2.04829,-17.78151 0.80504,-19.67896 -2.16198,-3.2996 -4.84618,-3.67119 -8.90842,-1.23326 -3.07145,1.84332 -16.08195,11.72604 -17.50545,13.29708 -0.264,0.29136 -2.24982,1.90092 -4.41293,3.57679 -3.72842,2.88861 -3.91131,2.93393 -3.51705,0.87152 0.59068,-3.08994 -1.81719,-5.03897 -7.90967,-6.4024 -2.90419,-0.64993 -5.28035,-1.49242 -5.28035,-1.87219 0,-0.37977 2.484,-2.56633 5.52,-4.85903 13.3577,-10.08737 16.56,-13.33177 16.56,-16.7778 0,-4.26705 -1.70237,-5.24141 -15.11772,-8.6527 l -10.79772,-2.74568 -2.04827,2.04828 c -1.45213,1.45212 -1.87736,2.72927 -1.46103,4.38806 0.48806,1.94458 1.6849,2.62961 7.08599,4.05575 3.57431,0.94379 6.92188,2.10292 7.43903,2.57585 1.04672,0.9572 -0.14801,2.04299 -13.6911,12.44258 -8.35047,6.41224 -9.01927,6.74436 -10.63559,5.28162 -1.23959,-1.12182 -3.57687,-1.56091 -8.30879,-1.56091 h -6.58402 l 2.4108,-2.64 c 3.26368,-3.57397 8.41004,-11.05554 12.27761,-17.84871 l 3.19323,-5.60871 -1.9229,-2.55129 -1.9229,-2.55129 -11.87831,0.33801 c -12.75585,0.36298 -15.23831,1.25136 -15.23831,5.45324 0,3.57798 2.16302,4.47115 9.99281,4.12628 6.55755,-0.28882 7.10429,-0.17438 6.04822,1.26599 -0.63857,0.87094 -3.389,4.84328 -6.11208,8.82743 -2.72308,3.98415 -6.07108,8.71235 -7.44,10.5071 -3.15696,4.13899 -3.32892,8.80487 -0.3826,10.38168 2.57144,1.3762 24.48462,0.37524 26.38919,-1.20542 0.91377,-0.75835 1.38974,-0.64486 1.80208,0.42968 0.30818,0.80312 1.7173,1.90568 3.13136,2.45012 5.83644,2.24715 19.07244,5.05056 21.53102,4.56032 1.78249,-0.35544 2.64,-0.12609 2.64,0.70609 0,4.17502 6.0668,6.23698 9.4206,3.20183 1.54206,-1.39554 2.13813,-1.26286 7.40819,1.64896 5.31823,2.93844 5.75365,3.43603 6.04274,6.90548 0.17134,2.05638 0.76424,4.28435 1.31755,4.95104 1.16971,1.40942 4.48254,1.56772 6.47146,0.30924 z M 317.1577,150.54436 c -2.09459,-1.01138 -2.07448,-1.06789 1.3476,-3.78742 1.91066,-1.5184 3.65136,-2.58329 3.86822,-2.36643 0.21687,0.21687 0.10237,1.95044 -0.25444,3.8524 -0.68029,3.62626 -1.46439,3.98998 -4.96138,2.30145 z m 48.13775,16.92807 c 3.78124,-3.78124 0.95918,-7.63141 -6.58775,-8.98771 -8.55876,-1.53814 -11.83322,-1.32812 -12.98991,0.83317 -2.57126,4.80445 -0.59637,6.90139 7.80942,8.29207 9.59598,1.58759 10.0484,1.5823 11.76824,-0.13753 z M 161.36402,164.181 c 3.02167,-3.02167 2.86898,-8.24564 -0.31505,-10.77865 -4.63448,-3.68689 -12.16495,-0.4268 -12.16495,5.26646 0,6.38763 8.04931,9.94288 12.48,5.51219 z m 33.76441,0.33122 c 2.41733,-2.18766 2.19847,-5.17066 -0.69186,-9.4298 -1.3461,-1.98359 -2.3181,-3.68995 -2.16,-3.79192 0.15809,-0.10197 2.5154,-1.58266 5.23845,-3.29042 6.1258,-3.84178 8.40999,-8.10812 7.79086,-14.55154 -0.57309,-5.96427 -3.55873,-9.998 -8.914,-12.04319 -4.01103,-1.53183 -4.589,-1.53713 -8.38786,-0.0769 -6.60544,2.539 -16.52254,9.48762 -16.8548,11.80968 -0.17765,1.24148 2.25378,6.19767 6.11835,12.47155 3.52723,5.72625 7.45427,12.33875 8.72676,14.69445 3.316,6.13878 5.75773,7.26369 9.1341,4.20812 z m -10.35701,-25.97213 -2.0326,-3.54212 4.14863,-2.20848 c 2.28174,-1.21467 4.56955,-2.20849 5.08402,-2.20849 1.53997,0 3.95255,2.89384 3.95255,4.741 0,1.53827 -6.50481,6.7934 -8.37942,6.7696 -0.40732,-0.005 -1.65525,-1.60335 -2.77318,-3.55151 z m 38.47922,13.78403 c 1.44196,-1.05438 1.66398,-2.08651 1.1874,-5.52 -0.80688,-5.81304 -8.01633,-30.4995 -9.39074,-32.15556 -2.36562,-2.85039 -8.56328,-1.07623 -8.56328,2.45134 0,3.24545 9.51256,34.91501 10.71664,35.67823 1.86924,1.18484 4.03052,1.02265 6.04998,-0.45401 z m 12.77977,-3.07755 c 1.23278,-0.86347 2.13361,-2.50299 2.13361,-3.8832 0,-3.35034 -7.59503,-33.20325 -8.82422,-34.68433 -1.61461,-1.94549 -5.39328,-1.43177 -6.92859,0.94196 -1.49943,2.31827 -1.67165,1.22373 4.30928,27.3878 2.61357,11.43328 4.55503,13.56823 9.30992,10.23777 z"
         id="path2" />
    </g>
</svg>
